PathFileType	4	(X/Y/Z)	Patient4_TMGait_0pt7_01_right_22.trc.trc
DataRate	CameraRate	NumFrames	NumMarkers	Units	OrigDataRate	OrigDataStartFrame	OrigNumFrames
84.337349397590	84.337349397590	6	33	mm	84.337349397590	71	       141
Frame#	Time	Sacral			L.Shoulder			Chest			R.Shoulder			Neck			R.ASIS			L.ASIS			R.Thigh.Superior			R.Thigh.Lateral			R.Thigh.Inferior			R.Patella			L.Thigh.Superior			L.Thigh.Lateral			L.Thigh.Inferior			L.Patella			L.Shank.Superior			L.Shank.Lateral			L.Shank.Inferior			R.Shank.Superior			R.Shank.Lateral			R.Shank.Inferior			R.Heel			R.Midfoot.Superior			R.Midfoot.Lateral			R.Toe			L.Heel			L.Midfoot.Lateral			L.Midfoot.Superior			L.Toe			L.Elbow			L.Wrist			R.Elbow			R.Wrist			
		X1	Y1	Z1	X2	Y2	Z2	X3	Y3	Z3	X4	Y4	Z4	X5	Y5	Z5	X6	Y6	Z6	X7	Y7	Z7	X8	Y8	Z8	X9	Y9	Z9	X10	Y10	Z10	X11	Y11	Z11	X12	Y12	Z12	X13	Y13	Z13	X14	Y14	Z14	X15	Y15	Z15	X16	Y16	Z16	X17	Y17	Z17	X18	Y18	Z18	X19	Y19	Z19	X20	Y20	Z20	X21	Y21	Z21	X22	Y22	Z22	X23	Y23	Z23	X24	Y24	Z24	X25	Y25	Z25	X26	Y26	Z26	X27	Y27	Z27	X28	Y28	Z28	X29	Y29	Z29	X30	Y30	Z30	X31	Y31	Z31	X32	Y32	Z32	X33	Y33	Z33	

71	25.540000000000	779.022399130514	1006.534080499453	481.617943891284	956.928601885765	1420.938515146709	276.522307948707	1075.532109183305	1343.307167215296	423.432222884793	1022.973081320708	1429.481499726096	602.948108985824	981.906673588931	1481.753116318463	429.597851187643	1005.616147928503	932.353897170211	586.568686419081	979.826371390413	944.885227603818	311.194101473026	999.234824673729	720.027489024715	559.015063999424	892.883059343361	628.088686128034	619.328140179839	950.242591202288	563.367545959162	537.243019816633	930.049717942491	479.771142181542	539.562553508570	1056.528653037738	774.971254505529	349.389406835389	1018.484570191929	643.148781417678	267.879170078531	1122.045290840934	589.523873510138	332.979308947193	1152.606922621016	525.910314421750	329.944304546740	1139.132428689259	451.917624135582	320.090677701495	1079.531299887223	318.578806651596	270.497093326210	1170.142693238094	224.201569903373	327.383750339589	891.930647564808	395.110887162633	545.128203643745	810.010115057534	299.196291615214	607.720564015377	837.433729077011	202.024643531940	538.978922760663	687.281804300696	43.449635194988	507.317996413029	860.615651378057	95.985605985891	539.932470659266	772.100804000334	36.639447943959	579.773029017394	980.493338443070	39.937763523393	564.517841905339	1094.345311619977	43.672906263837	366.767107097403	1169.674010138518	49.112740986818	288.157033837670	1237.725099122566	128.112051764863	309.265745399948	1372.788578644932	100.739729854030	287.132813321977	773.168255758489	1117.018832342708	209.371787613250	703.430590747630	867.457179482026	248.605902297266	1191.961919454550	1143.090788155332	713.401933173080	1422.040791062325	1212.510314619134	634.677584379717	
72	25.551857142857	780.402111334673	1004.907748436333	479.256955384806	956.554593901992	1420.092287437675	275.260069166917	1075.062191903402	1343.045211015450	422.497878609987	1021.248381593831	1428.389051053078	602.002762584072	980.699495938278	1480.867677343903	428.543851782060	1006.630208181332	931.203589936616	585.211809265082	981.820524624600	943.544881551811	309.809109739207	999.187214432474	718.587552819422	557.812794101518	891.788870752409	627.326911292876	617.981994565916	948.815313192944	561.891085922446	536.278741287690	927.589780783059	478.135370960936	538.406765909863	1057.755948043718	771.749330202461	347.588800260607	1016.369573152147	639.607937039047	268.219701264826	1120.183232761909	585.559950160818	332.204952864050	1149.122247386032	521.454247900543	330.163463853628	1135.477061670403	447.545694241329	320.660829415937	1074.424126131426	314.386050518476	272.961744087403	1164.902370042564	219.926726560886	329.695881016762	888.392693651510	393.986977021863	544.220066779455	805.082779470301	299.333484140260	607.126601737147	830.930714634373	201.600618889346	538.638340838370	679.033050305320	44.073179333108	507.426729576802	852.432734800590	95.902597070558	539.797971672618	763.851594340387	36.854179368038	579.856969635895	972.206807979372	39.641234690648	564.600176125841	1087.251465078634	41.941276975531	371.077512625733	1161.670222508819	45.827626047787	291.486406625823	1231.793357713462	122.728677438146	312.054795328146	1365.826037188855	92.050911872328	288.179557291411	773.006465170316	1116.397867165088	208.024379390653	703.011232197571	866.873988705715	247.303420353875	1190.634038240396	1140.480941613899	708.689800682761	1420.497973883518	1212.893506519221	632.263553178665	
73	25.563714285714	781.856253226208	1003.396824528275	476.750515947847	956.280890682240	1419.280737256184	273.843535851175	1074.705079944072	1342.854352755989	421.443288401553	1019.609086100082	1427.363042258518	600.952869896475	979.576769323928	1480.065341406488	427.321108639517	1007.742766177395	930.044400587598	583.718078195276	983.896763461178	942.325013763516	308.353334457327	999.334945786791	717.190543283977	556.578685341876	890.884599957411	626.616373309570	616.531314558421	947.733350621596	560.424553047329	535.310525205834	925.475128721662	476.436710670069	537.247679059406	1059.126721201820	768.666452854537	345.636740573996	1014.396654018840	636.334864706886	268.544442446558	1118.476019185623	581.897754204038	331.574577741305	1145.676779795223	517.146254039419	330.625298733976	1131.759135016584	443.290194642261	321.363178756610	1069.092318493527	310.510509930669	275.136258732554	1158.917441943392	215.652499048692	331.970781618539	885.112817680077	392.884206087958	543.303676292304	800.313747434983	299.604301890701	606.481858396350	824.561183268780	201.288166874114	538.326371641697	670.820959184855	44.947158991034	507.572894912377	844.365537152298	95.888928102475	539.727724230443	755.641846730330	37.167065338516	579.952016605977	963.949638964378	39.320921897120	564.691852471865	1078.625431119160	40.480433424966	374.829141632695	1152.314986948867	42.798882303840	294.407624231076	1224.740235068189	117.245272333019	314.872375196011	1357.702267696932	82.832411980211	289.410082807524	773.791332221367	1115.196440117628	206.304701486478	704.046013611833	865.558688896301	245.411987856264	1188.516889049460	1137.397957086573	704.343596590731	1418.444689516411	1211.960175873595	630.254911409844	
74	25.575571428571	783.305472741490	1002.088815084071	474.143378970703	956.133424823642	1418.560975532598	272.283210371047	1074.483662123961	1342.747852218535	420.260759314128	1018.141707793834	1426.452633752900	599.793870524969	978.609163225540	1479.400011880594	425.929516009961	1008.894509942127	928.930844606425	582.076825082331	985.957418425088	941.304941082924	306.816708327674	999.637059593589	715.896013193584	555.300974905815	890.173998961299	625.990819254519	614.973410195090	947.005724126409	559.024253475420	534.323755710403	923.755988671883	474.701612685171	536.104167882317	1060.556447214220	765.870563478792	343.597164218470	1012.641488375172	633.521831406728	268.740263744252	1116.911775183911	578.696489280887	331.081755881391	1142.325049959557	513.222562982236	331.261251379444	1128.105883633355	439.394486710243	322.100192593304	1063.871382876701	307.135981194824	276.809186512173	1152.573117280660	211.651018527488	334.055832190241	882.111158065012	391.832490350395	542.388670122378	795.723161885637	300.054393163666	605.790896975235	818.354982182340	201.133325315250	538.055271321695	662.658088396987	46.145085809200	507.766290652960	836.447560803527	95.960556932042	539.739578409631	747.480061181770	37.611928718358	580.065638608607	955.726603168341	38.988586205885	564.785800217072	1069.114566217944	39.327628100794	377.834869209273	1142.290697896966	40.199394273488	296.779161039358	1217.030551365528	112.056416746155	317.552087479348	1348.964042223894	73.830125442216	290.766084529989	775.532376200519	1113.477312136803	204.217000111893	706.554631787564	863.567436207326	242.927184329798	1185.631129728910	1133.900594294630	700.468412441018	1415.912828374617	1209.716478985762	628.648849023252	
75	25.587428571429	784.670450899672	1001.074599916996	471.482277358476	956.132827637590	1417.998143640681	270.595863586138	1074.414213138609	1342.747979773402	418.947655547745	1016.927307555385	1425.716993761547	598.523288214428	977.862385036135	1478.930976395672	424.376002141134	1010.025039566179	927.932146219403	580.278013298135	987.904222825993	940.568879472717	305.181146217550	1000.056965534324	714.774802439914	553.953416061061	889.680038668135	625.486403657301	613.309741748301	946.654991517645	557.753721896504	533.300828309734	922.503005104600	472.960240916073	535.005709585770	1061.966913755734	763.526188787347	341.536446345080	1011.186811089767	631.352900515453	268.695610124919	1115.480539707817	576.104079599731	330.682778766525	1139.117668363050	509.889819462832	331.945562782082	1124.614063618190	436.062835448066	322.750384875713	1058.990048875003	304.418776003950	277.822413014996	1146.157834645467	208.153429027437	335.811419398987	879.426349188316	390.865672413500	541.493022566108	791.347801360461	300.736269895716	605.066679075319	812.355426358151	201.186263450564	537.843116279145	654.563485194988	47.751867200756	508.018112859524	828.715436526906	96.129392584228	539.849322618334	739.377704562715	38.228522596376	580.206020723910	947.541157285398	38.657188972644	564.872831611169	1059.262507386757	38.498458178962	380.017574913747	1132.136684614091	38.136716874374	298.530993698229	1209.012256445586	107.493819467722	319.925741901010	1340.026031914145	65.700077576675	292.131173262292	778.220710720336	1111.334861170965	201.777775763682	710.548094536006	860.988725865974	239.847112669791	1181.993352660264	1130.072896840368	697.148542228871	1412.928033704029	1206.168922668150	627.436842449078	
76	25.599285714286	785.885435657419	1000.436190478810	468.810974925198	956.290946010802	1417.658560754636	268.804066265799	1074.503884153089	1342.882673998541	417.506671181694	1016.032860525050	1425.217830630473	597.141020739928	977.388619299267	1478.714976163203	422.675861467275	1011.078689522980	927.126160903290	578.312935869992	989.650715040331	940.194020409196	303.419611712465	1000.567484938061	713.901493147897	552.502989801699	889.443328954964	625.137063291874	611.549853188559	946.719484953391	556.676192060128	532.229063456553	921.804733590012	471.243057092324	533.997557728265	1063.288008947493	761.786505721020	339.511488095966	1010.097086949443	629.967953841270	268.320298654021	1114.162357498902	574.222904972517	330.304445195814	1136.079569603440	507.285708388911	332.526504821945	1121.326832651345	433.426431405832	323.197757960495	1054.543351386234	302.454870174858	278.097391719379	1139.837426054040	205.314157474212	337.137385236308	877.117053752319	390.017299610338	540.645823220362	787.241199737762	301.704752617619	604.331456965397	806.618765205036	201.497244496960	537.714449276689	646.564389892222	49.860877880838	508.339889405898	821.207936499464	96.403558865428	540.071140256435	731.349326081536	39.062412553962	580.381080376088	939.394413049774	38.339085908443	564.942674397312	1049.463579848449	37.977345474374	381.400451368041	1122.215130997352	36.642047896285	299.665105568480	1200.904339040638	103.780017615024	321.859638790191	1331.154042903115	58.920506729550	293.375685222268	781.824646733612	1108.889327498136	199.014028656575	716.028110942645	857.938951873607	236.175461961327	1177.616580731494	1126.022537378327	694.440051616570	1409.508791046178	1201.322343653317	626.608552365738	
